<svg xmlns="http://www.w3.org/2000/svg">
    <symbol viewBox="0 0 101 18" id="icon-logo">
      <g fill="#111" clip-path="url(#a)">
        <path
          d="M1.3 16.5A6.9 6.9 0 0 1 0 12.2V5.8a7 7 0 0 1 1.2-4.3C2 .5 3.4 0 5.4 0s3.2.5 4 1.3c.9 1 1.3 2.4 1.2 3.8v1.5H6.7V4.8c0-.5 0-1-.2-1.5L6 2.8l-.6-.1c-.6 0-1 .1-1.1.5C4 3.8 4 4.3 4 5v8.3l.3 1.6c.2.4.6.5 1.2.5.5 0 .8-.1 1-.5.2-.6.2-1.1.2-1.6v-1.9h3.9v1.5c0 1.4-.3 2.8-1.2 3.9-.8 1-2.1 1.4-4 1.4-2-.1-3.3-.6-4.1-1.6ZM15.3.2h4.5L23 17.8h-3.7l-.6-3.7h-2.6l-.6 3.7h-3.7L15.3.2Zm3.2 11.6-1-6.9-.9 6.9h1.9ZM25.8 3.2h-2.6v-3h9.4v2.9h-2.7v14.7h-4V3.2ZM39.8.2h7v1.9h-4.6v5.7h3.6v1.8h-3.6v6.5h4.5v1.7h-7V.2ZM48.8.2h1.7l5.1 11.6V.2h2v17.6h-1.5L51 5.8v12h-2.1V.2ZM60 .2h7v1.9h-4.5v5.7h3.6v1.8h-3.6v6.5H67v1.7h-7V.2ZM69 .2h3.7c1.4 0 2.9.3 4 1.1 1 .7 1.3 2 1.3 3.5 0 2.3-.7 3.7-2.2 4.1l2.5 8.8H76l-2.4-8.2h-2v8.2H69V.2Zm3.5 7.6c.9 0 1.7-.2 2.3-.6.5-.4.8-1.2.8-2.4 0-.5-.1-1.1-.3-1.6a2 2 0 0 0-.9-1C74 2 73.3 2 72.7 2h-1.1v5.8h1ZM81.2 16.5A7.6 7.6 0 0 1 80 12V6.2c0-1.2 0-2.3.4-3.4a4 4 0 0 1 1.5-2c.8-.5 1.9-.7 2.9-.6 1.6 0 2.8.3 3.5 1.2a5.8 5.8 0 0 1 1.1 3.8v.6h-2.3v-.5c0-.6 0-1.3-.2-2 0-.3-.3-.7-.6-1L84.9 2c-.6 0-1.1.1-1.6.5a1.7 1.7 0 0 0-.6 1.2 14 14 0 0 0-.2 2v6.6c0 1 .1 2 .5 3 .3.5 1 .8 1.9.8a2 2 0 0 0 1.9-1c.4-1 .6-2 .5-3v-1.3H85V9.1h4.6v8.7H88l-.2-2c-.2.6-.6 1.2-1.2 1.6-.6.4-1.3.6-2 .6a4 4 0 0 1-3.4-1.5ZM94.7 11.6 90.8.3h2.4l2.7 8.5L98.6.3h2.4l-3.9 11.3v6.2h-2.3v-6.2h-.1Z" />
      </g>
      <defs>
        <clipPath id="a">
          <path fill="#fff" d="M0 0h101v18H0z" />
        </clipPath>
      </defs>
    </symbol>
    <symbol viewBox="0 0 28 22" id="icon-vk">
      <path fill="#666"
        d="M1 5.3C1 4.5 1.5 4 2.5 4h4c.3 0 .5.1.5.4l1.4 3.2a39.8 39.8 0 0 0 2.4 3.4s.2 0 .2-.2l.1-.3V6.2c0-.3 0-.5-.2-.6l-.8-.2c-.3 0-.5-.3-.5-.6v-.1C10 3.6 11.1 3 12.8 3h1.5c.7 0 1.3.2 1.7.5.4.3.7.8.7 1.5v5.7l.3.1c.3 0 .5-.1.7-.4A17.7 17.7 0 0 0 21 5l.6-.7.8-.4H26.9c.4 0 .7.2.8.5l.2.3a2.4 2.4 0 0 1 0 .6v.1c0 .7-.4 1.5-.9 2.2-.5.8-1.1 1.7-2 2.6a27.6 27.6 0 0 0-1.6 2.3c0 .1 0 .3.2.5l3.9 4.6c.2.3.3.5.3.9s-.2.7-.5 1a2 2 0 0 1-1.1.3h-4.6l-.1.1c-.4 0-.8-.2-1.1-.5a241.3 241.3 0 0 1-3-3.3 38.5 38.5 0 0 0-.4 2.3l-.1.4c-.2.6-.6 1-1.1 1h-3c-1.5 0-3-.6-4.4-1.8-1.5-1.3-2.8-3-4-5A47.5 47.5 0 0 1 1 5.3ZM17 12c-.4 0-.7-.1-1-.3a.9.9 0 0 1-.5-.8V5c0-.3 0-.6-.2-.7-.2-.2-.5-.2-1-.2h-1.5c-.7 0-1.3.1-1.7.4.8.3 1.2 1 1.2 1.7v4.4c0 .4-.2.8-.6 1-.3.3-.6.5-1 .5-.6 0-1-.3-1.3-.8-1.3-2-2.4-3.8-3-5.6L6 5.1H2.2v.7l.6 1.4a33 33 0 0 0 4.8 8.6c1.8 2 3.5 3.1 5.2 3.1h2.9l.1-.4v-.3l.6-2.2.3-.6c.2-.2.5-.3.7-.3.5 0 .9.3 1.3.8l2.3 2.7c.2.2.3.3.5.3h4.4c.5 0 .8-.1.8-.4l-.1-.2-3.9-4.6c-.3-.3-.4-.7-.4-1 0-.5.1-.9.4-1.3L24 9.8l1.8-2.2c.5-.7.8-1.3 1-1.9V5.1h-4.2c-.3 0-.5.2-.6.4l-.2.5c-.4 1.1-1.6 3-3.5 5.3-.4.4-.8.6-1.3.6Z" />
    </symbol>
    <symbol iewBox="0 0 28 22" id="icon-yt">
      <path fill="#666"
        d="m17.9 10.8-5.3-3.5a.7.7 0 0 0-1 .5v7a.7.7 0 0 0 1 .6l5.3-3.5a.7.7 0 0 0 0-1.1Zm-5 2.8V9.1l3.4 2.2-3.4 2.3ZM25.4 5a2.4 2.4 0 0 0-1.5-1.6C20.2 2 14.3 2 14 2c-.3 0-6.2 0-10 1.4A2.4 2.4 0 0 0 2.7 5C2.3 6.1 2 8 2 11.3s.3 5.3.6 6.3a2.4 2.4 0 0 0 1.5 1.7c3.7 1.4 9.6 1.4 9.9 1.4.8 0 6.4 0 10-1.4a2.4 2.4 0 0 0 1.4-1.7c.3-1 .6-3 .6-6.3 0-3.2-.3-5.2-.6-6.3ZM24 17.3a1 1 0 0 1-.6.7C20 19.4 14 19.4 14 19.4c0 0-6 0-9.5-1.4a1 1 0 0 1-.6-.7c-.3-1-.6-2.8-.6-6 0-3 .3-5 .6-6a1 1 0 0 1 .6-.7C8 3.3 14 3.3 14 3.3c0 0 6 0 9.5 1.3a1 1 0 0 1 .6.8c.3 1 .6 2.8.6 6 0 3-.3 4.9-.6 6Z" />
    </symbol>
    <symbol iewBox="0 0 28 22" id="icon-tg">
      <path fill="#666" fill-rule="evenodd"
        d="m23.5 3.2.2.6L21 19.5a.7.7 0 0 1-1 .5l-8-5.3a.7.7 0 0 1 0-1l2.5-3.2-4.3 2.9h-.7l-5.2-2.6a.7.7 0 0 1 0-1.2L22.8 3c.2 0 .5 0 .7.2ZM6.3 10.3l3.6 1.8 7.5-5a.7.7 0 0 1 .9 1l-4.8 6 6.4 4.2 2.3-13.6-15.9 5.6Z"
        clip-rule="evenodd" />
    </symbol>
    <symbol viewBox="0 0 28 34" fill="none" id="icon-html">
      <g clip-path="url(#clip0_92001_45)">
        <path
          d="M14.1426 0.0157537L14 0L0.5 1.40733V26.0129L14 34L27.5 26.0129V1.40733L14.1426 0.0157537ZM25.7344 25.0151L14 31.9573L2.26561 25.0151V14.9293L13.9507 21.8451L13.9701 23.0984L5.95351 18.3548L5.94295 19.5801L13.9894 24.3885L14.0088 25.675L5.96408 20.9174L5.95351 22.1427L14 26.9511L22.1239 22.1182V20.8929V16.909L25.7432 14.7595L25.7344 25.0151ZM25.7344 13.4519L22.5147 15.3319L21.0325 16.2071L13.9666 12.0201L13.956 13.2454L19.9957 16.818L19.9429 16.8495L19.8126 16.9247L18.9536 17.4166L13.9666 14.4689L13.956 15.6942L17.8921 18.0222L16.9591 18.6314L16.938 18.6436L13.9666 16.902L13.956 18.1273L15.9029 19.2615L13.9155 20.4483L2.2973 13.5762L13.9349 6.61831L25.7344 13.4519ZM25.7344 12.2266L13.9401 5.31075L2.26561 12.2196V2.9897L14 1.76442L25.7344 2.9897V12.2266Z"
          fill="#666666" />
      </g>
      <defs>
        <clipPath id="clip0_92001_45">
          <rect width="27" height="34" fill="white" transform="translate(0.5)" />
        </clipPath>
      </defs>
    </symbol>
  </svg>
